<?xml version="1.0" encoding="UTF-8"?>
<!DOCTYPE svg PUBLIC "-//W3C//DTD SVG 1.1//EN" "http://www.w3.org/Graphics/SVG/1.1/DTD/svg11.dtd">
<svg xmlns="http://www.w3.org/2000/svg" version="1.1" width="169px" height="230px" style="shape-rendering:geometricPrecision; text-rendering:geometricPrecision; image-rendering:optimizeQuality; fill-rule:evenodd; clip-rule:evenodd" xmlns:xlink="http://www.w3.org/1999/xlink">
<g><path style="opacity:1" fill="#c2941b" d="M 92.5,12.5 C 96.5185,15.5244 100.518,18.5244 104.5,21.5C 102.105,24.8615 99.1051,27.5281 95.5,29.5C 93.3719,26.8697 91.0386,24.3697 88.5,22C 90.5328,19.1041 91.8662,15.9374 92.5,12.5 Z"/></g>
<g><path style="opacity:0.999" fill="#cdad20" d="M 92.5,12.5 C 91.8662,15.9374 90.5328,19.1041 88.5,22C 91.0386,24.3697 93.3719,26.8697 95.5,29.5C 95.0074,31.8056 94.6741,34.139 94.5,36.5C 90.1434,36.5865 85.81,36.9198 81.5,37.5C 83.4877,32.8548 85.4877,28.1881 87.5,23.5C 86.91,22.2011 85.91,21.3678 84.5,21C 81.4869,20.4978 78.4869,19.9978 75.5,19.5C 76.7627,25.6201 78.4293,31.6201 80.5,37.5C 77.9906,36.0787 75.6572,34.4121 73.5,32.5C 71.0416,30.5443 68.7083,28.3777 66.5,26C 68.079,23.2628 69.4123,20.4295 70.5,17.5C 71.3149,16.5707 72.1482,15.5707 73,14.5C 73.6667,15.8333 74.3333,17.1667 75,18.5C 80.7282,16.2017 86.5615,14.2017 92.5,12.5 Z"/></g>
<g><path style="opacity:1" fill="#be9001" d="M 81.5,37.5 C 81.5,38.1667 81.1667,38.5 80.5,38.5C 80.5,38.1667 80.5,37.8333 80.5,37.5C 78.4293,31.6201 76.7627,25.6201 75.5,19.5C 78.4869,19.9978 81.4869,20.4978 84.5,21C 85.91,21.3678 86.91,22.2011 87.5,23.5C 85.4877,28.1881 83.4877,32.8548 81.5,37.5 Z"/></g>
<g><path style="opacity:0.973" fill="#bca161" d="M 58.5,14.5 C 58.5,16.5 58.5,18.5 58.5,20.5C 57.3951,21.6005 56.0618,22.2671 54.5,22.5C 56.6802,20.1932 58.0135,17.5265 58.5,14.5 Z"/></g>
<g><path style="opacity:1" fill="#876503" d="M 58.5,20.5 C 61.629,21.7952 63.9624,23.9619 65.5,27C 63.4388,31.6391 60.7722,35.8058 57.5,39.5C 55.6396,34.5854 53.9729,29.5854 52.5,24.5C 52.8333,23.5 53.5,22.8333 54.5,22.5C 56.0618,22.2671 57.3951,21.6005 58.5,20.5 Z"/></g>
<g><path style="opacity:0.953" fill="#c4ad78" d="M 107.5,25.5 C 107.167,25.5 106.833,25.5 106.5,25.5C 106.768,23.901 106.434,22.5676 105.5,21.5C 106.14,19.668 107.14,19.3347 108.5,20.5C 107.691,22.0709 107.357,23.7376 107.5,25.5 Z"/></g>
<g><path style="opacity:1" fill="#876501" d="M 104.5,21.5 C 104.833,21.5 105.167,21.5 105.5,21.5C 106.434,22.5676 106.768,23.901 106.5,25.5C 105.454,28.7278 104.788,32.0611 104.5,35.5C 101.615,35.1936 98.9479,35.5269 96.5,36.5C 95.8333,36.5 95.1667,36.5 94.5,36.5C 94.6741,34.139 95.0074,31.8056 95.5,29.5C 99.1051,27.5281 102.105,24.8615 104.5,21.5 Z"/></g>
<g><path style="opacity:1" fill="#bd9004" d="M 51.5,24.5 C 51.8333,24.5 52.1667,24.5 52.5,24.5C 53.9729,29.5854 55.6396,34.5854 57.5,39.5C 53.3599,37.2612 49.3599,34.7612 45.5,32C 48.1177,29.8943 50.1177,27.3943 51.5,24.5 Z"/></g>
<g><path style="opacity:1" fill="#be910d" d="M 70.5,17.5 C 69.4123,20.4295 68.079,23.2628 66.5,26C 68.7083,28.3777 71.0416,30.5443 73.5,32.5C 72.2599,33.973 71.2599,35.6396 70.5,37.5C 71.325,38.3857 72.325,38.719 73.5,38.5C 69.2838,38.8161 66.9504,41.1494 66.5,45.5C 65.6851,46.4293 64.8518,47.4293 64,48.5C 63.6174,47.944 63.1174,47.6107 62.5,47.5C 61.1891,44.8646 59.5224,42.5313 57.5,40.5C 57.5,40.1667 57.5,39.8333 57.5,39.5C 60.7722,35.8058 63.4388,31.6391 65.5,27C 63.9624,23.9619 61.629,21.7952 58.5,20.5C 58.5,18.5 58.5,16.5 58.5,14.5C 62.3481,14.7944 66.3481,15.7944 70.5,17.5 Z"/></g>
<g><path style="opacity:1" fill="#c79c2e" d="M 107.5,25.5 C 111.665,29.4968 115.998,33.3301 120.5,37C 117.621,39.3852 114.621,41.5518 111.5,43.5C 111.443,42.391 111.11,41.391 110.5,40.5C 111.124,40.0831 111.457,39.4164 111.5,38.5C 109.392,34.4021 108.059,30.0688 107.5,25.5 Z"/></g>
<g><path style="opacity:0.997" fill="#d0b12d" d="M 51.5,24.5 C 50.1177,27.3943 48.1177,29.8943 45.5,32C 49.3599,34.7612 53.3599,37.2612 57.5,39.5C 57.5,39.8333 57.5,40.1667 57.5,40.5C 53.6125,40.6459 49.9458,41.3126 46.5,42.5C 44.6208,41.6586 42.6208,41.3253 40.5,41.5C 38.1432,41.6633 35.8098,41.4966 33.5,41C 37.0053,38.3248 40.3386,35.4915 43.5,32.5C 41.1667,30.5 38.8333,28.5 36.5,26.5C 41.4617,25.504 46.4617,24.8373 51.5,24.5 Z"/></g>
<g><path style="opacity:1" fill="#7a5c01" d="M 73.5,32.5 C 75.6572,34.4121 77.9906,36.0787 80.5,37.5C 80.5,37.8333 80.5,38.1667 80.5,38.5C 78.1667,38.5 75.8333,38.5 73.5,38.5C 72.325,38.719 71.325,38.3857 70.5,37.5C 71.2599,35.6396 72.2599,33.973 73.5,32.5 Z"/></g>
<g><path style="opacity:1" fill="#cbab16" d="M 106.5,25.5 C 106.833,25.5 107.167,25.5 107.5,25.5C 108.059,30.0688 109.392,34.4021 111.5,38.5C 111.457,39.4164 111.124,40.0831 110.5,40.5C 108.825,38.998 106.992,37.6647 105,36.5C 104.502,39.4816 104.335,42.4816 104.5,45.5C 93.5215,46.7198 82.5215,47.7198 71.5,48.5C 69.2646,48.2053 67.2646,48.5386 65.5,49.5C 62.5,49.5 59.5,49.5 56.5,49.5C 58.2143,48.2616 60.2143,47.595 62.5,47.5C 63.1174,47.6107 63.6174,47.944 64,48.5C 64.8518,47.4293 65.6851,46.4293 66.5,45.5C 77.8577,42.8607 89.191,40.0273 100.5,37C 99.2068,36.51 97.8734,36.3433 96.5,36.5C 98.9479,35.5269 101.615,35.1936 104.5,35.5C 104.788,32.0611 105.454,28.7278 106.5,25.5 Z"/></g>
<g><path style="opacity:1" fill="#816415" d="M 110.5,40.5 C 111.11,41.391 111.443,42.391 111.5,43.5C 109.823,45.5398 108.156,47.5398 106.5,49.5C 105.833,48.1667 105.167,46.8333 104.5,45.5C 104.335,42.4816 104.502,39.4816 105,36.5C 106.992,37.6647 108.825,38.998 110.5,40.5 Z"/></g>
<g><path style="opacity:1" fill="#e1c429" d="M 94.5,36.5 C 95.1667,36.5 95.8333,36.5 96.5,36.5C 97.8734,36.3433 99.2068,36.51 100.5,37C 89.191,40.0273 77.8577,42.8607 66.5,45.5C 66.9504,41.1494 69.2838,38.8161 73.5,38.5C 75.8333,38.5 78.1667,38.5 80.5,38.5C 81.1667,38.5 81.5,38.1667 81.5,37.5C 85.81,36.9198 90.1434,36.5865 94.5,36.5 Z"/></g>
<g><path style="opacity:1" fill="#e2c52a" d="M 57.5,40.5 C 59.5224,42.5313 61.1891,44.8646 62.5,47.5C 60.2143,47.595 58.2143,48.2616 56.5,49.5C 49.9636,51.9809 46.6302,49.6475 46.5,42.5C 49.9458,41.3126 53.6125,40.6459 57.5,40.5 Z"/></g>
<g><path style="opacity:0.982" fill="#debca4" d="M 104.5,45.5 C 105.167,46.8333 105.833,48.1667 106.5,49.5C 106.196,50.1499 105.863,50.8165 105.5,51.5C 106.904,62.7648 107.57,74.0981 107.5,85.5C 101.359,85.8569 95.3588,86.8569 89.5,88.5C 85.8019,88.5524 82.1352,88.8857 78.5,89.5C 76.6321,75.7591 74.2988,62.0924 71.5,48.5C 82.5215,47.7198 93.5215,46.7198 104.5,45.5 Z"/></g>
<g><path style="opacity:1" fill="#8a690f" d="M 40.5,41.5 C 42.6208,41.3253 44.6208,41.6586 46.5,42.5C 46.6302,49.6475 49.9636,51.9809 56.5,49.5C 59.5,49.5 62.5,49.5 65.5,49.5C 67.3913,52.9572 69.058,56.6239 70.5,60.5C 68.6957,61.7681 66.6957,62.4348 64.5,62.5C 64.3718,60.9102 63.7051,59.5769 62.5,58.5C 59.2643,60.4971 55.9309,61.1638 52.5,60.5C 51.9717,59.2794 51.305,58.1127 50.5,57C 45.7036,54.0541 40.7036,52.7207 35.5,53C 37.6547,49.366 39.3214,45.5326 40.5,41.5 Z"/></g>
<g><path style="opacity:0.997" fill="#c2977a" d="M 65.5,49.5 C 67.2646,48.5386 69.2646,48.2053 71.5,48.5C 74.2988,62.0924 76.6321,75.7591 78.5,89.5C 77.1266,89.3433 75.7932,89.51 74.5,90C 78.538,91.3522 82.2046,93.1855 85.5,95.5C 81.4587,99.2768 77.292,102.943 73,106.5C 70.4731,102.104 67.9731,97.7705 65.5,93.5C 64.5,91.5 63.5,89.5 62.5,87.5C 64.8363,86.155 66.503,84.155 67.5,81.5C 68.6408,78.3601 68.8075,75.0267 68,71.5C 66.6439,70.6198 65.1439,70.2865 63.5,70.5C 63.5,70.1667 63.5,69.8333 63.5,69.5C 64.5,69.5 65.5,69.5 66.5,69.5C 66.6061,66.9214 65.9395,64.588 64.5,62.5C 66.6957,62.4348 68.6957,61.7681 70.5,60.5C 69.058,56.6239 67.3913,52.9572 65.5,49.5 Z"/></g>
<g><path style="opacity:1" fill="#916e1a" d="M 102.5,52.5 C 99.779,52.0372 97.1123,51.3705 94.5,50.5C 96.3609,49.493 99.0275,49.1596 102.5,49.5C 102.5,50.5 102.5,51.5 102.5,52.5 Z"/></g>
<g><path style="opacity:1" fill="#c3987a" d="M 94.5,50.5 C 97.1123,51.3705 99.779,52.0372 102.5,52.5C 98.6239,53.2046 96.1239,55.5379 95,59.5C 94.502,56.5184 94.3354,53.5184 94.5,50.5 Z"/></g>
<g><path style="opacity:1" fill="#c19879" d="M 83.5,51.5 C 84.9097,50.1716 86.0764,50.5049 87,52.5C 87.8075,56.0267 87.6408,59.3601 86.5,62.5C 86.1583,61.6618 85.4916,61.3284 84.5,61.5C 85.8069,60.1984 85.8069,58.865 84.5,57.5C 82.3691,56.8313 80.3691,56.1646 78.5,55.5C 80.2554,54.9278 81.9221,54.0945 83.5,53C 84.7383,52.31 84.7383,51.81 83.5,51.5 Z"/></g>
<g><path style="opacity:1" fill="#916e1a" d="M 83.5,51.5 C 84.7383,51.81 84.7383,52.31 83.5,53C 81.9221,54.0945 80.2554,54.9278 78.5,55.5C 78.5,54.1667 78.5,52.8333 78.5,51.5C 80.1667,51.5 81.8333,51.5 83.5,51.5 Z"/></g>
<g><path style="opacity:0.981" fill="#dbb99f" d="M 64.5,62.5 C 65.9395,64.588 66.6061,66.9214 66.5,69.5C 65.5,69.5 64.5,69.5 63.5,69.5C 63.7678,67.901 63.4345,66.5676 62.5,65.5C 61.3029,62.1056 59.3029,61.6056 56.5,64C 57.3734,65.045 58.3734,65.8783 59.5,66.5C 60.4345,67.5676 60.7678,68.901 60.5,70.5C 58.847,70.6596 57.5137,71.3263 56.5,72.5C 55.8778,68.63 54.5444,64.63 52.5,60.5C 55.9309,61.1638 59.2643,60.4971 62.5,58.5C 63.7051,59.5769 64.3718,60.9102 64.5,62.5 Z"/></g>
<g><path style="opacity:1" fill="#4a433f" d="M 96.5,59.5 C 98.288,59.2148 99.9547,59.5481 101.5,60.5C 99.2029,63.2896 97.5362,62.9563 96.5,59.5 Z"/></g>
<g><path style="opacity:1" fill="#403b39" d="M 84.5,61.5 C 85.4916,61.3284 86.1583,61.6618 86.5,62.5C 84.6921,64.8091 82.6921,64.8091 80.5,62.5C 81.6888,61.5713 83.0222,61.238 84.5,61.5 Z"/></g>
<g><path style="opacity:1" fill="#97735d" d="M 62.5,65.5 C 61.209,65.2627 60.209,65.596 59.5,66.5C 58.3734,65.8783 57.3734,65.045 56.5,64C 59.3029,61.6056 61.3029,62.1056 62.5,65.5 Z"/></g>
<g><path style="opacity:1" fill="#94715b" d="M 92.5,64.5 C 93.552,64.3505 94.552,64.5172 95.5,65C 93.6629,68.645 91.6629,68.9784 89.5,66C 90.7375,65.7679 91.7375,65.2679 92.5,64.5 Z"/></g>
<g><path style="opacity:1" fill="#b38916" d="M 59.5,66.5 C 60.209,65.596 61.209,65.2627 62.5,65.5C 63.4345,66.5676 63.7678,67.901 63.5,69.5C 63.5,69.8333 63.5,70.1667 63.5,70.5C 63.5,71.5 63.5,72.5 63.5,73.5C 62.5,74.8333 61.5,74.8333 60.5,73.5C 60.5,72.5 60.5,71.5 60.5,70.5C 60.7678,68.901 60.4345,67.5676 59.5,66.5 Z"/></g>
<g><path style="opacity:1" fill="#7c5d0f" d="M 60.5,70.5 C 60.5,71.5 60.5,72.5 60.5,73.5C 59.5386,75.2646 59.2053,77.2646 59.5,79.5C 61.5,79.5 63.5,79.5 65.5,79.5C 65.9746,76.9179 65.3079,74.9179 63.5,73.5C 63.5,72.5 63.5,71.5 63.5,70.5C 65.1439,70.2865 66.6439,70.6198 68,71.5C 68.8075,75.0267 68.6408,78.3601 67.5,81.5C 64.1667,81.5 60.8333,81.5 57.5,81.5C 57.7373,80.209 57.404,79.209 56.5,78.5C 56.5,76.5 56.5,74.5 56.5,72.5C 57.5137,71.3263 58.847,70.6596 60.5,70.5 Z"/></g>
<g><path style="opacity:1" fill="#7c5e09" d="M 98.5,73.5 C 96.323,73.5861 94.323,74.2528 92.5,75.5C 90.0177,74.9329 87.6843,74.2663 85.5,73.5C 87.8647,72.4055 90.3647,71.7388 93,71.5C 95.2206,71.3932 97.0539,72.0598 98.5,73.5 Z"/></g>
<g><path style="opacity:1" fill="#977156" d="M 60.5,73.5 C 61.5,74.8333 62.5,74.8333 63.5,73.5C 65.3079,74.9179 65.9746,76.9179 65.5,79.5C 63.5,79.5 61.5,79.5 59.5,79.5C 59.2053,77.2646 59.5386,75.2646 60.5,73.5 Z"/></g>
<g><path style="opacity:1" fill="#b98f21" d="M 85.5,73.5 C 87.6843,74.2663 90.0177,74.9329 92.5,75.5C 94.323,74.2528 96.323,73.5861 98.5,73.5C 97.1498,75.6829 95.3164,77.3496 93,78.5C 89.742,77.1203 86.5753,75.6203 83.5,74C 84.0944,73.5357 84.7611,73.369 85.5,73.5 Z"/></g>
<g><path style="opacity:0.939" fill="#967558" d="M 56.5,78.5 C 57.404,79.209 57.7373,80.209 57.5,81.5C 60.8333,81.5 64.1667,81.5 67.5,81.5C 66.503,84.155 64.8363,86.155 62.5,87.5C 62.3103,83.6426 60.3103,81.976 56.5,82.5C 56.5,81.1667 56.5,79.8333 56.5,78.5 Z"/></g>
<g><path style="opacity:0.02" fill="#dbdcdb" d="M 118.5,84.5 C 117.833,83.1667 117.833,83.1667 118.5,84.5 Z"/></g>
<g><path style="opacity:0.967" fill="#94715c" d="M 89.5,88.5 C 89.0248,90.7837 88.0248,92.7837 86.5,94.5C 86.5,95.1667 86.1667,95.5 85.5,95.5C 82.2046,93.1855 78.538,91.3522 74.5,90C 75.7932,89.51 77.1266,89.3433 78.5,89.5C 82.1352,88.8857 85.8019,88.5524 89.5,88.5 Z"/></g>
<g><path style="opacity:0.298" fill="#9c9c9c" d="M 118.5,84.5 C 120.083,86.6626 121.416,88.9959 122.5,91.5C 121.662,91.8417 121.328,92.5084 121.5,93.5C 119.928,90.7846 118.928,87.7846 118.5,84.5 Z"/></g>
<g><path style="opacity:0.994" fill="#e4c732" d="M 40.5,104.5 C 40.3343,108.846 40.501,113.179 41,117.5C 41.3826,118.056 41.8826,118.389 42.5,118.5C 45.8068,120.153 49.1401,121.82 52.5,123.5C 53.4287,124.689 53.762,126.022 53.5,127.5C 52.9421,133.18 52.2755,138.847 51.5,144.5C 44.825,144.666 38.1583,144.5 31.5,144C 23.4077,140.785 16.0743,136.285 9.5,130.5C 7.09822,124.295 5.09822,117.961 3.5,111.5C 7.21529,104.943 11.5486,98.776 16.5,93C 24.4662,93.6614 32.4662,94.4947 40.5,95.5C 40.5,98.5 40.5,101.5 40.5,104.5 Z"/></g>
<g><path style="opacity:0.877" fill="#666666" d="M 122.5,91.5 C 125.084,95.6662 127.417,99.9996 129.5,104.5C 128.395,105.6 127.062,106.267 125.5,106.5C 123.768,102.303 122.435,97.9693 121.5,93.5C 121.328,92.5084 121.662,91.8417 122.5,91.5 Z"/></g>
<g><path style="opacity:0.998" fill="#4a4947" d="M 65.5,93.5 C 67.9731,97.7705 70.4731,102.104 73,106.5C 77.292,102.943 81.4587,99.2768 85.5,95.5C 86.1667,95.5 86.5,95.1667 86.5,94.5C 88.099,94.2322 89.4324,94.5655 90.5,95.5C 89.7892,100.657 89.7892,105.99 90.5,111.5C 80.4888,112.034 70.4888,112.701 60.5,113.5C 60.7678,111.901 60.4345,110.568 59.5,109.5C 59.8182,104.968 59.4849,100.634 58.5,96.5C 60.5093,94.9348 62.8427,93.9348 65.5,93.5 Z"/></g>
<g><path style="opacity:1" fill="#b98c0e" d="M 58.5,96.5 C 59.4849,100.634 59.8182,104.968 59.5,109.5C 59.6815,114.304 58.0148,118.304 54.5,121.5C 53.9984,113.814 53.3317,106.147 52.5,98.5C 54.1016,96.9261 56.1016,96.2594 58.5,96.5 Z"/></g>
<g><path style="opacity:1" fill="#b78c15" d="M 90.5,95.5 C 92.7857,95.595 94.7857,96.2616 96.5,97.5C 97.2862,103.814 97.9529,110.147 98.5,116.5C 98.5,116.833 98.5,117.167 98.5,117.5C 95.8333,115.5 93.1667,113.5 90.5,111.5C 89.7892,105.99 89.7892,100.657 90.5,95.5 Z"/></g>
<g><path style="opacity:0.981" fill="#4b4b49" d="M 52.5,98.5 C 53.3317,106.147 53.9984,113.814 54.5,121.5C 54.5,121.833 54.5,122.167 54.5,122.5C 52.8606,120.194 50.8606,118.194 48.5,116.5C 47.3696,111.776 46.0363,107.109 44.5,102.5C 47.1667,101.167 49.8333,99.8333 52.5,98.5 Z"/></g>
<g><path style="opacity:0.972" fill="#504f4d" d="M 96.5,97.5 C 98.8333,99.5 101.167,101.5 103.5,103.5C 102.801,108.272 101.134,112.605 98.5,116.5C 97.9529,110.147 97.2862,103.814 96.5,97.5 Z"/></g>
<g><path style="opacity:1" fill="#524f44" d="M 17.5,99.5 C 22.1882,100.887 22.6882,103.22 19,106.5C 17.9264,105.382 16.7598,104.382 15.5,103.5C 16.1799,102.14 16.8466,100.807 17.5,99.5 Z"/></g>
<g><path style="opacity:0.979" fill="#dabaa3" d="M 44.5,102.5 C 46.0363,107.109 47.3696,111.776 48.5,116.5C 45.9899,116.054 43.9899,116.72 42.5,118.5C 41.8826,118.389 41.3826,118.056 41,117.5C 40.501,113.179 40.3343,108.846 40.5,104.5C 41.8333,103.833 43.1667,103.167 44.5,102.5 Z"/></g>
<g><path style="opacity:0.961" fill="#dbbaa3" d="M 129.5,104.5 C 131.153,104.66 132.486,105.326 133.5,106.5C 132.503,106.47 131.836,106.97 131.5,108C 132.044,109.585 132.711,111.085 133.5,112.5C 131.477,113.521 129.477,113.188 127.5,111.5C 126.833,111.833 126.167,112.167 125.5,112.5C 124.272,111.694 123.272,110.694 122.5,109.5C 123.694,108.728 124.694,107.728 125.5,106.5C 127.062,106.267 128.395,105.6 129.5,104.5 Z"/></g>
<g><path style="opacity:0.918" fill="#dcbba4" d="M 103.5,103.5 C 106.806,107.473 110.473,111.14 114.5,114.5C 111.672,116.47 108.672,118.303 105.5,120C 104.748,120.671 104.414,121.504 104.5,122.5C 103.185,121.524 101.852,120.524 100.5,119.5C 99.7025,119.957 99.3691,120.624 99.5,121.5C 98.5655,120.432 98.2322,119.099 98.5,117.5C 98.5,117.167 98.5,116.833 98.5,116.5C 101.134,112.605 102.801,108.272 103.5,103.5 Z"/></g>
<g><path style="opacity:0.866" fill="#c79e84" d="M 133.5,106.5 C 137.692,108.303 139.692,111.637 139.5,116.5C 139.457,117.416 139.124,118.083 138.5,118.5C 136.357,116.869 134.69,114.869 133.5,112.5C 132.711,111.085 132.044,109.585 131.5,108C 131.836,106.97 132.503,106.47 133.5,106.5 Z"/></g>
<g><path style="opacity:1" fill="#893b02" d="M 12.5,106.5 C 17.1882,107.887 17.6882,110.22 14,113.5C 12.9264,112.382 11.7598,111.382 10.5,110.5C 11.1799,109.14 11.8466,107.807 12.5,106.5 Z"/></g>
<g><path style="opacity:1" fill="#dcb99d" d="M 26.5,107.5 C 28.0858,108.148 29.7525,108.648 31.5,109C 29.9368,110.736 28.2701,112.236 26.5,113.5C 25.1805,114.942 23.5138,115.608 21.5,115.5C 21.679,111.791 23.3457,109.124 26.5,107.5 Z"/></g>
<g><path style="opacity:0.924" fill="#c69c81" d="M 122.5,109.5 C 123.272,110.694 124.272,111.694 125.5,112.5C 124.699,114.042 124.366,115.708 124.5,117.5C 120.645,121.035 116.812,124.702 113,128.5C 110.287,126.28 107.454,124.28 104.5,122.5C 104.414,121.504 104.748,120.671 105.5,120C 108.672,118.303 111.672,116.47 114.5,114.5C 117.167,112.833 119.833,111.167 122.5,109.5 Z"/></g>
<g><path style="opacity:1" fill="#9e785c" d="M 26.5,113.5 C 28.2701,112.236 29.9368,110.736 31.5,109C 29.7525,108.648 28.0858,108.148 26.5,107.5C 28.2905,106.609 30.1239,105.609 32,104.5C 33.4613,107.679 34.2946,111.012 34.5,114.5C 32.4004,114.477 30.5671,115.144 29,116.5C 27.6898,115.87 26.8565,114.87 26.5,113.5 Z"/></g>
<g><path style="opacity:1" fill="#886606" d="M 59.5,109.5 C 60.4345,110.568 60.7678,111.901 60.5,113.5C 70.4888,112.701 80.4888,112.034 90.5,111.5C 93.1667,113.5 95.8333,115.5 98.5,117.5C 98.2322,119.099 98.5655,120.432 99.5,121.5C 100.075,130.093 101.075,138.593 102.5,147C 102.272,147.399 101.938,147.565 101.5,147.5C 93.6853,152.157 85.5186,156.157 77,159.5C 70.062,157.131 63.2287,154.465 56.5,151.5C 55.8281,152.949 55.1614,154.282 54.5,155.5C 54.5,146.167 54.5,136.833 54.5,127.5C 54.5,125.833 54.5,124.167 54.5,122.5C 54.5,122.167 54.5,121.833 54.5,121.5C 58.0148,118.304 59.6815,114.304 59.5,109.5 Z"/></g>
<g><path style="opacity:0.972" fill="#8c6a57" d="M 127.5,111.5 C 128.167,113.5 128.833,115.5 129.5,117.5C 127.833,117.5 126.167,117.5 124.5,117.5C 124.366,115.708 124.699,114.042 125.5,112.5C 126.167,112.167 126.833,111.833 127.5,111.5 Z"/></g>
<g><path style="opacity:0.949" fill="#959290" d="M 127.5,111.5 C 129.477,113.188 131.477,113.521 133.5,112.5C 134.69,114.869 136.357,116.869 138.5,118.5C 138.5,119.167 138.167,119.5 137.5,119.5C 135.181,119.992 133.181,120.992 131.5,122.5C 130.463,121.07 129.796,119.403 129.5,117.5C 128.833,115.5 128.167,113.5 127.5,111.5 Z"/></g>
<g><path style="opacity:1" fill="#f6f2e7" d="M 48.5,116.5 C 50.8606,118.194 52.8606,120.194 54.5,122.5C 54.5,124.167 54.5,125.833 54.5,127.5C 54.1667,127.5 53.8333,127.5 53.5,127.5C 53.762,126.022 53.4287,124.689 52.5,123.5C 49.1401,121.82 45.8068,120.153 42.5,118.5C 43.9899,116.72 45.9899,116.054 48.5,116.5 Z"/></g>
<g><path style="opacity:1" fill="#ad4d02" d="M 12.5,116.5 C 17.9504,117.23 18.6171,119.23 14.5,122.5C 10.1465,121.527 9.47982,119.527 12.5,116.5 Z"/></g>
<g><path style="opacity:1" fill="#9e7700" d="M 71.5,118.5 C 75.7675,118.203 79.9341,118.536 84,119.5C 85.5944,125.399 86.4277,131.399 86.5,137.5C 80.192,138.531 73.8586,139.031 67.5,139C 66.376,138.751 65.376,138.251 64.5,137.5C 63.8721,135.742 62.8721,134.242 61.5,133C 62.7932,132.51 64.1266,132.343 65.5,132.5C 65.5328,128.131 65.1995,123.798 64.5,119.5C 67.0593,119.802 69.3926,119.468 71.5,118.5 Z"/></g>
<g><path style="opacity:1" fill="#947527" d="M 137.5,119.5 C 137.552,121.903 137.219,124.236 136.5,126.5C 135.5,125.833 134.5,125.167 133.5,124.5C 132.5,124.167 131.833,123.5 131.5,122.5C 133.181,120.992 135.181,119.992 137.5,119.5 Z"/></g>
<g><path style="opacity:1" fill="#ce5702" d="M 18.5,124.5 C 23.1972,125.874 23.5305,127.874 19.5,130.5C 16.025,128.916 15.6917,126.916 18.5,124.5 Z"/></g>
<g><path style="opacity:1" fill="#cca43e" d="M 133.5,124.5 C 134.5,125.167 135.5,125.833 136.5,126.5C 137.88,126.962 138.547,127.962 138.5,129.5C 138.267,130.932 137.6,131.432 136.5,131C 135.167,130 133.833,129 132.5,128C 133.337,126.989 133.67,125.822 133.5,124.5 Z"/></g>
<g><path style="opacity:1" fill="#c8a711" d="M 69.5,126.5 C 71.1207,126.787 72.1207,127.787 72.5,129.5C 71.8938,131.709 71.2272,133.876 70.5,136C 69.5,136.5 68.5,137 67.5,137.5C 66.5159,134.572 66.1826,131.572 66.5,128.5C 68.1788,128.715 69.1788,128.048 69.5,126.5 Z"/></g>
<g><path style="opacity:1" fill="#eb8a03" d="M 25.5,129.5 C 29.9288,130.666 30.4288,132.666 27,135.5C 22.9619,134.315 22.4619,132.315 25.5,129.5 Z"/></g>
<g><path style="opacity:1" fill="#fc9f04" d="M 34.5,132.5 C 39.9504,133.23 40.6171,135.23 36.5,138.5C 32.1465,137.527 31.4798,135.527 34.5,132.5 Z"/></g>
<g><path style="opacity:1" fill="#c4a411" d="M 85.5,140.5 C 86.8221,140.33 87.9887,140.663 89,141.5C 90.4876,149.882 88.6543,150.549 83.5,143.5C 84.1925,142.482 84.8592,141.482 85.5,140.5 Z"/></g>
<g><path style="opacity:1" fill="#be9007" d="M 101.5,147.5 C 103.791,154.667 105.458,162 106.5,169.5C 106.5,170.5 106.5,171.5 106.5,172.5C 104.901,172.232 103.568,172.566 102.5,173.5C 96.8681,174.991 91.2015,176.325 85.5,177.5C 83.4443,173.667 81.7776,169.667 80.5,165.5C 80.5386,164.244 80.0386,163.244 79,162.5C 78.5034,164.81 78.3367,167.143 78.5,169.5C 78.5,171.167 78.5,172.833 78.5,174.5C 77.5489,175.919 77.2155,177.585 77.5,179.5C 70.4812,178.608 63.4812,177.608 56.5,176.5C 55.609,175.89 54.609,175.557 53.5,175.5C 53.7129,168.826 54.0462,162.159 54.5,155.5C 55.1614,154.282 55.8281,152.949 56.5,151.5C 63.2287,154.465 70.062,157.131 77,159.5C 85.5186,156.157 93.6853,152.157 101.5,147.5 Z"/></g>
<g><path style="opacity:0.365" fill="#e4ce92" d="M 80.5,165.5 C 79.8333,166.833 79.1667,168.167 78.5,169.5C 78.3367,167.143 78.5034,164.81 79,162.5C 80.0386,163.244 80.5386,164.244 80.5,165.5 Z"/></g>
<g><path style="opacity:0.998" fill="#cfb022" d="M 106.5,169.5 C 108.073,174.6 109.74,179.767 111.5,185C 110.906,185.464 110.239,185.631 109.5,185.5C 103.132,185.83 96.7985,185.496 90.5,184.5C 94.794,181.011 99.1273,177.511 103.5,174C 103.272,173.601 102.938,173.435 102.5,173.5C 103.568,172.566 104.901,172.232 106.5,172.5C 106.5,171.5 106.5,170.5 106.5,169.5 Z"/></g>
<g><path style="opacity:0.998" fill="#cdae1b" d="M 53.5,175.5 C 54.609,175.557 55.609,175.89 56.5,176.5C 62.7394,179.958 69.0727,183.458 75.5,187C 67.6554,187.822 59.9887,187.656 52.5,186.5C 52.244,182.731 52.5773,179.064 53.5,175.5 Z"/></g>
<g><path style="opacity:0.976" fill="#e5c93c" d="M 102.5,173.5 C 102.938,173.435 103.272,173.601 103.5,174C 99.1273,177.511 94.794,181.011 90.5,184.5C 96.7985,185.496 103.132,185.83 109.5,185.5C 106.659,186.669 103.659,187.669 100.5,188.5C 98.2143,188.595 96.2143,189.262 94.5,190.5C 92.9139,191.413 91.4139,191.413 90,190.5C 88.1965,186.256 86.6965,181.922 85.5,177.5C 91.2015,176.325 96.8681,174.991 102.5,173.5 Z"/></g>
<g><path style="opacity:0.985" fill="#e5c941" d="M 78.5,174.5 C 78.0908,180.502 77.5908,186.502 77,192.5C 74.9734,192.986 72.8067,192.986 70.5,192.5C 68.3432,191.593 66.0098,190.927 63.5,190.5C 59.4287,189.815 55.4287,188.815 51.5,187.5C 51.6236,186.893 51.9569,186.56 52.5,186.5C 59.9887,187.656 67.6554,187.822 75.5,187C 69.0727,183.458 62.7394,179.958 56.5,176.5C 63.4812,177.608 70.4812,178.608 77.5,179.5C 77.2155,177.585 77.5489,175.919 78.5,174.5 Z"/></g>
<g><path style="opacity:0.944" fill="#9d7c62" d="M 100.5,188.5 C 100.557,189.609 100.89,190.609 101.5,191.5C 99.5,192.167 97.5,192.833 95.5,193.5C 94.596,192.791 94.2627,191.791 94.5,190.5C 96.2143,189.262 98.2143,188.595 100.5,188.5 Z"/></g>
<g><path style="opacity:0.946" fill="#906c57" d="M 63.5,190.5 C 66.0098,190.927 68.3432,191.593 70.5,192.5C 70.5,193.167 70.5,193.833 70.5,194.5C 70.5299,195.497 70.0299,196.164 69,196.5C 67.1886,195.922 65.3553,195.422 63.5,195C 62.7476,194.329 62.4142,193.496 62.5,192.5C 62.8333,191.833 63.1667,191.167 63.5,190.5 Z"/></g>
<g><path style="opacity:0.898" fill="#ddbea8" d="M 101.5,191.5 C 103.833,193.167 105.833,195.167 107.5,197.5C 105.692,198.907 103.692,200.074 101.5,201C 106.155,201.499 110.821,201.666 115.5,201.5C 109.592,202.499 102.926,202.833 95.5,202.5C 95.5,199.5 95.5,196.5 95.5,193.5C 97.5,192.833 99.5,192.167 101.5,191.5 Z"/></g>
<g><path style="opacity:0.977" fill="#d3ae95" d="M 62.5,192.5 C 62.4142,193.496 62.7476,194.329 63.5,195C 65.3553,195.422 67.1886,195.922 69,196.5C 70.0299,196.164 70.5299,195.497 70.5,194.5C 71.531,196.961 72.1977,199.627 72.5,202.5C 66.4908,202.666 60.4908,202.499 54.5,202C 57.7834,199.228 60.4501,196.061 62.5,192.5 Z"/></g>
<g><path style="opacity:0.93" fill="#c69d81" d="M 115.5,201.5 C 110.821,201.666 106.155,201.499 101.5,201C 103.692,200.074 105.692,198.907 107.5,197.5C 111.375,196.103 114.041,197.437 115.5,201.5 Z"/></g>
</svg>
